<?xml version="1.0" encoding="UTF-8" standalone="no"?>
<svg
   xmlns:dc="http://purl.org/dc/elements/1.1/"
   xmlns:cc="http://creativecommons.org/ns#"
   xmlns:rdf="http://www.w3.org/1999/02/22-rdf-syntax-ns#"
   xmlns:svg="http://www.w3.org/2000/svg"
   xmlns="http://www.w3.org/2000/svg"
   xmlns:sodipodi="http://sodipodi.sourceforge.net/DTD/sodipodi-0.dtd"
   xmlns:inkscape="http://www.inkscape.org/namespaces/inkscape"
   id="Layer_1"
   data-name="Layer 1"
   viewBox="0 0 19.24 25"
   version="1.1"
   inkscape:version="0.91 r13725"
   sodipodi:docname="kibana-color.svg">
  <metadata
     id="metadata4417">
    <rdf:RDF>
      <cc:Work
         rdf:about="">
        <dc:format>image/svg+xml</dc:format>
        <dc:type
           rdf:resource="http://purl.org/dc/dcmitype/StillImage" />
      </cc:Work>
    </rdf:RDF>
  </metadata>
  <sodipodi:namedview
     pagecolor="#ffffff"
     bordercolor="#666666"
     borderopacity="1"
     objecttolerance="10"
     gridtolerance="10"
     guidetolerance="10"
     inkscape:pageopacity="0"
     inkscape:pageshadow="2"
     inkscape:window-width="1084"
     inkscape:window-height="480"
     id="namedview4415"
     showgrid="false"
     inkscape:zoom="9.44"
     inkscape:cx="9.6199999"
     inkscape:cy="12.5"
     inkscape:window-x="0"
     inkscape:window-y="27"
     inkscape:window-maximized="0"
     inkscape:current-layer="Layer_1" />
  <defs
     id="defs4389">
    <style
       id="style4391">.cls-1,.cls-2,.cls-3{fill:#ff0f0f;}.cls-1{opacity:0.7;}.cls-2{opacity:0.5;}</style>
  </defs>
  <title
     id="title4393">Icon-Kibana</title>
  <path
     style="fill:#ff010d;fill-opacity:0.8508287"
     d="M 8.874654,20.744873 C 8.6414374,20.693559 8.2325489,20.540651 7.9660155,20.405076 7.5415842,20.189184 7.3253226,20.007306 6.2244547,18.940404 5.5331322,18.270411 4.9675036,17.693491 4.9675036,17.658358 c 0,-0.03513 0.2921008,-0.352093 0.6491114,-0.704354 l 0.6491125,-0.640476 1.2177121,1.188718 c 1.3417499,1.309802 1.5154786,1.427452 2.1110979,1.429638 0.6951055,0.0026 0.7358165,-0.02383 2.1301975,-1.380135 0.701306,-0.682158 1.301474,-1.240287 1.333705,-1.240287 0.03223,0 0.351066,0.288576 0.708527,0.641281 l 0.649931,0.641283 -1.28701,1.262477 c -1.364491,1.338481 -1.707833,1.59678 -2.403583,1.808234 -0.537368,0.163321 -1.3196954,0.197178 -1.851651,0.08014 z M 2.2342514,15.015492 C 1.1496045,13.932638 0.96469818,13.719913 0.74521622,13.302429 0.15532768,12.18038 0.182749,10.893433 0.81885245,9.8465106 0.96059769,9.6132225 1.4820304,9.049135 2.3195497,8.223051 L 3.6030279,6.9571002 4.2549783,7.596394 c 0.3585724,0.3516128 0.6519499,0.6652329 0.6519499,0.6969361 0,0.031704 -0.5674153,0.6220511 -1.2609211,1.3118822 -1.3788718,1.3715657 -1.4056863,1.4116087 -1.403092,2.0953387 0.00226,0.590607 0.1228396,0.762923 1.4557097,2.079992 l 1.2074468,1.193132 -0.6517528,0.639102 c -0.358464,0.351504 -0.6809755,0.639099 -0.7166926,0.639099 -0.035719,0 -0.6222359,-0.556374 -1.3033739,-1.236384 z M 15.128351,15.61062 c -0.35773,-0.352968 -0.650417,-0.666807 -0.650417,-0.697415 0,-0.03061 0.567414,-0.620062 1.260921,-1.309893 1.378873,-1.371565 1.405687,-1.41161 1.403092,-2.09534 -0.0022,-0.590604 -0.122839,-0.762923 -1.455709,-2.0799911 L 14.478791,8.2348486 15.130543,7.5957483 c 0.358464,-0.3515054 0.680977,-0.639101 0.716694,-0.639101 0.03571,0 0.622236,0.5563731 1.303373,1.2363856 1.084647,1.082851 1.269553,1.2955777 1.489034,1.7130623 0.457381,0.8699978 0.547254,1.8161308 0.259185,2.7285068 -0.21581,0.683511 -0.482093,1.025084 -1.838143,2.357862 l -1.281919,1.259921 -0.650416,-0.641765 z m -8.0394807,0.06021 c -0.816478,-0.403502 -0.5279332,-1.682077 0.3798065,-1.682957 0.5190574,-4.43e-4 0.9143805,0.385813 0.9143805,0.893549 0,0.668317 -0.6889137,1.088529 -1.294187,0.789406 z M 9.9860921,15.65496 C 9.8644125,15.591729 9.7076708,15.448979 9.6377796,15.337742 9.5140424,15.140806 9.5107018,15.070146 9.5107018,12.648484 c 0,-2.346938 -0.00597,-2.484334 -0.1060072,-2.43954 -0.058304,0.0261 -0.2559333,0.05775 -0.4391752,0.07032 C 8.692251,10.298006 8.5953391,10.27719 8.4264903,10.163692 8.0170674,9.8883826 7.8844047,9.3696628 8.1123736,8.9354686 8.2592201,8.6557805 9.8490487,7.1049118 10.075875,7.0200838 c 0.437123,-0.1634746 0.99199,0.027118 1.200369,0.4123123 0.105909,0.195776 0.112315,0.4193709 0.112315,3.9200749 0,3.573824 -0.0045,3.721033 -0.119127,3.942143 -0.220364,0.42488 -0.829846,0.596015 -1.2833399,0.360346 z M 5.6178923,6.25578 4.9679638,5.6144974 6.2549732,4.35202 C 7.6157201,3.0172127 7.9634629,2.7550431 8.6499485,2.5464001 c 0.917295,-0.278789 1.8202035,-0.1969985 2.7376905,0.2480003 0.472985,0.2294061 0.614305,0.3466988 1.771848,1.4705881 0.691829,0.6717156 1.257872,1.2500433 1.257872,1.285177 0,0.035132 -0.29238,0.3523675 -0.649732,0.7049657 L 13.117893,6.8962195 11.904799,5.7081338 C 10.581813,4.4124229 10.379219,4.2739217 9.7968743,4.2670804 9.1192502,4.2591108 9.0521411,4.3027652 7.6601268,5.6567728 6.9588202,6.3389325 6.3586522,6.8970621 6.3264224,6.8970621 c -0.032229,0 -0.3510691,-0.2885773 -0.7085301,-0.6412821 z"
     id="path4258"
     inkscape:connector-curvature="0" />
</svg>
