<?xml version="1.0" encoding="UTF-8" standalone="no"?>
<svg
   xmlns:dc="http://purl.org/dc/elements/1.1/"
   xmlns:cc="http://creativecommons.org/ns#"
   xmlns:rdf="http://www.w3.org/1999/02/22-rdf-syntax-ns#"
   xmlns:svg="http://www.w3.org/2000/svg"
   xmlns="http://www.w3.org/2000/svg"
   xmlns:sodipodi="http://sodipodi.sourceforge.net/DTD/sodipodi-0.dtd"
   xmlns:inkscape="http://www.inkscape.org/namespaces/inkscape"
   version="1.1"
   id="Layer_1"
   inkscape:version="0.91 r13725"
   sodipodi:docname="kibana.svg"
   x="0px"
   y="0px"
   viewBox="0 0 141.4 51"
   style="enable-background:new 0 0 141.4 51;"
   xml:space="preserve"><metadata
     id="metadata38"><rdf:RDF><cc:Work
         rdf:about=""><dc:format>image/svg+xml</dc:format><dc:type
           rdf:resource="http://purl.org/dc/dcmitype/StillImage" /></cc:Work></rdf:RDF></metadata><defs
     id="defs36" /><style
     type="text/css"
     id="style3">
	.st0{fill:#FFFFFF;fill-opacity:0.9253;}
	.st1{opacity:0.7;fill:#FFFFFF;}
	.st2{opacity:0.5;fill:#FFFFFF;}
	.st3{fill:#FFFFFF;}
</style><sodipodi:namedview
     bordercolor="#666666"
     borderopacity="1"
     gridtolerance="10"
     guidetolerance="10"
     id="namedview29"
     inkscape:current-layer="Layer_1"
     inkscape:cx="-83.229774"
     inkscape:cy="25.5"
     inkscape:pageopacity="1"
     inkscape:pageshadow="2"
     inkscape:window-height="873"
     inkscape:window-maximized="1"
     inkscape:window-width="1600"
     inkscape:window-x="0"
     inkscape:window-y="27"
     inkscape:zoom="2.0725756"
     objecttolerance="10"
     pagecolor="#515151"
     showgrid="false" /><title
     id="title7">Kibana-Full-Logo</title><g
     id="text4159"
     transform="translate(0,-13.509761)" /><path
     inkscape:connector-curvature="0"
     class="cls-1"
     d="m 81.24237,40.637021 -4.920851,5.865813"
     id="path15"
     style="fill:#ffffff;fill-opacity:0.77348064" /><text
     xml:space="preserve"
     style="font-style:normal;font-weight:normal;font-size:35.92359924px;line-height:125%;font-family:sans-serif;letter-spacing:0px;word-spacing:0px;fill:#ffffff;fill-opacity:0.85635358;stroke:none;stroke-width:1px;stroke-linecap:butt;stroke-linejoin:miter;stroke-opacity:1"
     x="58.569668"
     y="35.793163"
     id="text4202"
     sodipodi:linespacing="125%"
     transform="scale(0.98066665,1.0197145)"><tspan
       sodipodi:role="line"
       id="tspan4204"
       x="58.569668"
       y="35.793163">logs</tspan></text>
<path
     style="fill:#ffffff;fill-opacity:0.8508287"
     d="m 20.298257,42.492128 c -0.471798,-0.10116 -1.298981,-0.402605 -1.838179,-0.66988 -0.858626,-0.42561 -1.296124,-0.784167 -3.523184,-2.887471 -1.398548,-1.320835 -2.542817,-2.458183 -2.542817,-2.527444 0,-0.06926 0.590921,-0.69412 1.313155,-1.388573 l 1.313157,-1.262643 2.463436,2.343454 c 2.714365,2.582161 3.065819,2.814098 4.270759,2.818408 1.406201,0.0051 1.48856,-0.04697 4.309397,-2.720816 1.418745,-1.344815 2.632887,-2.445119 2.698089,-2.445119 0.0652,0 0.71021,0.568902 1.433355,1.264231 l 1.314811,1.264233 -2.603625,2.488863 c -2.760371,2.6387 -3.454953,3.147914 -4.862457,3.564778 -1.087099,0.321971 -2.669749,0.388718 -3.745897,0.157979 z M 6.864698,31.19715 C 4.6704526,29.062399 4.2963871,28.64303 3.8523746,27.819996 2.6590285,25.607973 2.7145006,23.070868 4.001339,21.006951 4.2880896,20.547044 5.3429496,19.434994 7.037255,17.806441 l 2.5964811,-2.495712 1.3188979,1.260312 c 0.725393,0.693174 1.318897,1.311449 1.318897,1.373949 0,0.0625 -1.147883,1.22632 -2.5508479,2.586262 -2.7894627,2.703924 -2.8437085,2.782865 -2.8384602,4.130781 0.00456,1.16433 0.2485051,1.504036 2.9449062,4.100524 l 2.4426689,2.352157 -1.318498,1.259933 c -0.725174,0.69296 -1.3776159,1.25993 -1.4498719,1.25993 -0.07226,0 -1.2587854,-1.096844 -2.6367301,-2.437427 z m 26.08481,1.173246 c -0.723687,-0.695847 -1.315795,-1.314554 -1.315795,-1.374896 0,-0.06034 1.147881,-1.222398 2.550847,-2.582339 2.789464,-2.703922 2.843711,-2.782868 2.83846,-4.130782 -0.0046,-1.164326 -0.248504,-1.504036 -2.944904,-4.100523 l -2.442668,-2.352157 1.318496,-1.259931 c 0.725173,-0.692962 1.377618,-1.259932 1.449873,-1.259932 0.07225,0 1.258786,1.096841 2.636729,2.437427 2.194245,2.134747 2.568309,2.55412 3.012323,3.377154 0.925282,1.715126 1.107096,3.580345 0.524329,5.379015 -0.436584,1.347484 -0.975275,2.020865 -3.718567,4.648321 l -2.593327,2.483826 -1.315796,-1.265183 z M 16.68561,32.489099 c -1.651738,-0.795468 -1.068011,-3.316066 0.76835,-3.317802 1.050055,-8.72e-4 1.849795,0.760598 1.849795,1.761555 0,1.317529 -1.393675,2.14594 -2.618145,1.556247 z m 5.86109,-0.03129 c -0.246158,-0.124657 -0.563247,-0.406075 -0.704637,-0.62537 -0.250321,-0.388242 -0.257079,-0.527543 -0.257079,-5.30164 0,-4.626784 -0.01207,-4.897648 -0.214453,-4.809343 -0.117949,0.05146 -0.517754,0.113851 -0.888453,0.138633 -0.552823,0.03695 -0.748876,-0.004 -1.090458,-0.227841 -0.828264,-0.54275 -1.096641,-1.565362 -0.635459,-2.421338 0.297071,-0.551381 3.5133,-3.608784 3.97217,-3.776015 0.884302,-0.322276 2.006801,0.05346 2.428351,0.812838 0.214254,0.385955 0.227212,0.826753 0.227212,7.728089 0,7.045484 -0.009,7.335695 -0.240991,7.771593 -0.445798,0.837616 -1.678784,1.174994 -2.596203,0.710393 z m -8.836884,-18.529672 -1.314808,-1.264233 2.603625,-2.488865 c 2.752796,-2.6314574 3.456281,-3.1483021 4.845044,-3.5596238 1.855691,-0.5496086 3.682279,-0.3883643 5.538359,0.4889113 0.956849,0.4522542 1.24274,0.6834865 3.584455,2.8991375 1.399571,1.324229 2.544677,2.464352 2.544677,2.533615 0,0.06926 -0.591484,0.694662 -1.31441,1.389779 l -1.314412,1.26385 -2.454095,-2.342208 c -2.676405,-2.554382 -3.086254,-2.827425 -4.264339,-2.840912 -1.370836,-0.01571 -1.506598,0.07035 -4.322648,2.739658 -1.418746,1.344819 -2.632888,2.445123 -2.698089,2.445123 -0.0652,0 -0.710214,-0.568905 -1.433359,-1.264232 z"
     id="path4258"
     inkscape:connector-curvature="0" /><flowRoot
     xml:space="preserve"
     id="flowRoot4151"
     style="fill:black;stroke:none;stroke-opacity:1;stroke-width:1px;stroke-linejoin:miter;stroke-linecap:butt;fill-opacity:1;font-family:sans-serif;font-style:normal;font-weight:normal;font-size:40px;line-height:125%;letter-spacing:0px;word-spacing:0px"><flowRegion
       id="flowRegion4153"><rect
         id="rect4155"
         width="79.611092"
         height="48.731636"
         x="68.513786"
         y="19.638056" /></flowRegion><flowPara
       id="flowPara4157"></flowPara></flowRoot></svg>